<?xml version="1.0" encoding="UTF-8" standalone="no"?>
<svg width="51px" height="33px" viewBox="0 0 51 33" version="1.1" xmlns="http://www.w3.org/2000/svg" xmlns:xlink="http://www.w3.org/1999/xlink">
    <!-- Generator: Sketch 40.2 (33826) - http://www.bohemiancoding.com/sketch -->
    <title>Combined Shape</title>
    <desc>Created with Sketch.</desc>
    <defs></defs>
    <g id="Page-1" stroke="none" stroke-width="1" fill="none" fill-rule="evenodd" opacity="0.699999988">
        <g id="goggles-copy" style="mix-blend-mode: multiply;" fill="#FFFFFF">
            <path d="M44.3475759,32.6527048 L35.2685837,32.6527048 C34.085463,32.6527048 32.9237743,32.331253 31.9087354,31.7221446 C30.8932996,31.1130361 30.0614241,30.2389337 29.5028054,29.1940663 L26.9430817,24.4066807 C26.6434319,23.8480663 26.0864008,23.5140904 25.4527704,23.5140904 L25.4503891,23.5140904 L25.4394747,23.5140904 L25.4370934,23.5140904 C24.803463,23.5140904 24.2466304,23.8478675 23.947179,24.4072771 L21.3870584,29.1940663 C20.8284397,30.2389337 19.9965642,31.1130361 18.9817237,31.7221446 C17.9658911,32.331253 16.8040039,32.6527048 15.6212802,32.6527048 L6.54228794,32.6527048 C4.79439689,32.6527048 3.15148249,31.9712349 1.91636965,30.7329398 C0.681653696,29.4950422 0.00158754864,27.8488193 0.00158754864,26.0974337 L0,6.55228916 C0,4.80090361 0.680463035,3.15527711 1.91636965,1.9181747 C3.15207782,0.681271084 4.79538911,0 6.54367704,0 L44.3459883,0 C46.0944747,0 47.737786,0.681271084 48.9734942,1.9181747 C50.2094008,3.15527711 50.8898638,4.80090361 50.8898638,6.55228916 L50.8882763,26.0974337 C50.8882763,27.8488193 50.2082101,29.4950422 48.9734942,30.7329398 C47.7383813,31.9712349 46.0954669,32.6527048 44.3475759,32.6527048 Z M13.861284,11.1730843 C11.0237393,11.1730843 8.71504669,13.4844759 8.71504669,16.3254578 C8.71504669,19.1664398 11.0237393,21.4778313 13.861284,21.4778313 C16.6956537,21.4778313 19.0015681,19.1664398 19.0015681,16.3254578 C19.0015681,13.4844759 16.6956537,11.1730843 13.861284,11.1730843 Z M37.0278852,11.1730843 C34.1933171,11.1730843 31.8874027,13.4844759 31.8874027,16.3254578 C31.8874027,19.1664398 34.1933171,21.4778313 37.0278852,21.4778313 C39.86543,21.4778313 42.1739241,19.1664398 42.1739241,16.3254578 C42.1739241,13.4844759 39.86543,11.1730843 37.0278852,11.1730843 Z" id="Combined-Shape"></path>
        </g>
    </g>
</svg>