<?xml version="1.0" encoding="UTF-8" standalone="no"?>
<svg width="85px" height="86px" viewBox="0 0 85 86" version="1.1" xmlns="http://www.w3.org/2000/svg" xmlns:xlink="http://www.w3.org/1999/xlink">
    <!-- Generator: Sketch 39.1 (31720) - http://www.bohemiancoding.com/sketch -->
    <title>forward</title>
    <desc>Created with Sketch.</desc>
    <defs>
        <filter x="-50%" y="-50%" width="200%" height="200%" filterUnits="objectBoundingBox" id="filter-1">
            <feOffset dx="0" dy="2" in="SourceAlpha" result="shadowOffsetOuter1"></feOffset>
            <feGaussianBlur stdDeviation="15" in="shadowOffsetOuter1" result="shadowBlurOuter1"></feGaussianBlur>
            <feColorMatrix values="0 0 0 0 0   0 0 0 0 0   0 0 0 0 0  0 0 0 0.29 0" type="matrix" in="shadowBlurOuter1" result="shadowMatrixOuter1"></feColorMatrix>
            <feMerge>
                <feMergeNode in="shadowMatrixOuter1"></feMergeNode>
                <feMergeNode in="SourceGraphic"></feMergeNode>
            </feMerge>
        </filter>
    </defs>
    <g id="Page-1" stroke="none" stroke-width="1" fill="none" fill-rule="evenodd">
        <g id="02_overflow-menu" transform="translate(-1428.000000, -907.000000)" fill="#565656">
            <g id="overflow" filter="url(#filter-1)" transform="translate(1418.000000, 603.000000)">
                <path d="M53.0289822,357.28494 L42.7454895,347 L65.916,347 L65.916,346.998265 C65.9438573,346.999418 65.9718611,347 66,347 C67.104,347 68,346.104 68,345 C68,343.896 67.104,343 66,343 C65.9718611,343 65.9438573,343.000582 65.916,343.001735 L65.916,343 L42.7454895,343 L53.0289822,332.71506 C53.6106299,332.365158 54,331.727774 54,331 C54,329.896 53.104,329 52,329 C51.4266494,329 50.9093992,329.241663 50.5446194,329.628619 L50.502,329.586 L36.29,343.798 L36.3548273,343.862873 C36.1311131,344.185804 36,344.577683 36,345 C36,345.422317 36.1311131,345.814196 36.3548273,346.137127 L36.29,346.202 L50.502,360.414 L50.5446194,360.371381 C50.9093992,360.758337 51.4266494,361 52,361 C53.104,361 54,360.104 54,359 C54,358.272226 53.6106299,357.634842 53.0289822,357.28494 Z" id="forward" transform="translate(52.000000, 345.000000) rotate(-180.000000) translate(-52.000000, -345.000000) "></path>
            </g>
        </g>
    </g>
</svg>